<svg class="w-24 h-24" width="303" height="303" viewBox="0 0 303 303" fill="none" xmlns="http://www.w3.org/2000/svg">
    <path
        d="M180.446 209.332C180.446 250.563 146.743 284.13 104.719 285.3C103.964 285.3 103.209 285.338 102.454 285.338C93.1744 285.352 83.9634 283.745 75.2365 280.589C45.5423 269.823 24.4023 241.986 24.4023 209.332C24.4189 198.768 26.6679 188.326 31.002 178.691C35.336 169.056 41.6573 160.446 49.5514 153.425C57.125 146.633 65.9457 141.376 75.5234 137.947C83.26 135.206 91.374 133.678 99.5777 133.417C100.514 133.379 101.465 133.357 102.416 133.357C113.485 133.337 124.436 135.634 134.564 140.099C140.493 142.707 146.072 146.045 151.174 150.035C157.517 154.97 163.047 160.867 167.565 167.513C175.957 179.845 180.445 194.416 180.446 209.332V209.332Z"
        fill="#CFCFCF"></path>
    <path
        d="M293.564 145.568C296.897 153.151 293.453 162.001 285.869 165.335L249.853 181.171L214.073 196.905L181.867 211.058C174.282 214.391 165.43 210.943 162.099 203.357L157.116 192.013L106.72 77.3659V77.3659C106.662 77.2324 106.722 77.0768 106.856 77.0182L224.336 25.3731C231.92 22.0392 240.77 25.4843 244.104 33.0679L263.579 77.3659L279.381 113.304L293.564 145.568Z"
        fill="#EFEFEF"></path>
    <path
        d="M36.958 23.7685C33.3438 20.4159 28.5765 18.5853 23.6473 18.6571C18.6644 18.6435 13.8608 20.5154 10.2008 23.8968C8.33605 25.4669 6.84665 27.4347 5.84195 29.6558C4.83726 31.8768 4.34278 34.2947 4.39484 36.7318C4.37453 39.16 4.8952 41.5621 5.91906 43.7639C6.94291 45.9657 8.44424 47.9119 10.314 49.4611C14.0042 52.8013 18.8214 54.6219 23.7983 54.5574C28.7332 54.5902 33.4895 52.7126 37.0712 49.3177C38.8856 47.7245 40.3308 45.7548 41.3061 43.546C42.2815 41.3371 42.7635 38.9422 42.7186 36.528C42.742 34.1105 42.2388 31.717 41.244 29.5136C40.2492 27.3102 38.7867 25.3498 36.958 23.7685V23.7685ZM103.579 201.073C96.7842 186.26 90.3516 171.311 83.7529 156.437C81.0198 150.286 78.2842 144.133 75.546 137.977C70.3919 126.36 65.2277 114.733 60.0534 103.096C56.2281 94.4742 52.3977 85.8597 48.5623 77.2527L18.9059 77.6604L49.5589 153.432L76.8144 220.703C85.3384 239.902 82.9375 264.244 75.2214 280.567C83.9483 283.722 93.1593 285.329 102.439 285.316C103.194 285.316 103.949 285.316 104.704 285.278C118.777 260.046 115.229 226.599 103.579 201.073Z"
        fill="#333333"></path>
    <path
        d="M263.579 77.366H263.254L227.014 166.094L188.336 77.366H160.401L171.794 101.881L145.203 164.025L106.864 77.366H75.0933L141.428 228.925L157.116 192.013L183.164 130.858L214.074 196.882L249.853 181.148L279.381 113.281L263.579 77.366Z"
        fill="#333333"></path>
</svg>